<svg width="37" height="37" viewBox="0 0 37 37" fill="none" xmlns="http://www.w3.org/2000/svg">
<path fill-rule="evenodd" clip-rule="evenodd" d="M36.0017 16H34.0017V15C34.0017 7.832 28.1697 2 21.0017 2H20.0017V0H21.0017C29.2737 0 36.0017 6.728 36.0017 15V16ZM30.0017 16H28.0017V15C28.0017 11.14 24.8617 8 21.0017 8H20.0017V6H21.0017C25.9637 6 30.0017 10.038 30.0017 15V16ZM2.22651 15.1944C1.75651 11.8444 2.01851 8.5504 3.00851 5.4004C3.27251 4.5624 4.04451 4.0004 4.93051 4.0004H10.0065C11.1065 4.0004 12.0025 4.8964 12.0025 5.9964V10.5864L8.00251 14.5864V15.0004C8.00251 22.1684 13.8345 28.0004 21.0025 28.0004H21.4165L25.4165 24.0004H30.0065C31.1065 24.0004 32.0025 24.8964 32.0025 25.9964V31.0704C32.0025 31.9584 31.4385 32.7304 30.6005 32.9924C27.4525 33.9844 24.1565 34.2484 20.8065 33.7764C11.2145 32.4284 3.57451 24.7864 2.22651 15.1944ZM20.5285 35.7564C21.6985 35.9204 22.8625 36.0024 24.0165 36.0024C26.4625 36.0024 28.8685 35.6344 31.2005 34.9004C32.8765 34.3744 34.0025 32.8364 34.0025 31.0704V25.9964C34.0025 23.7924 32.2085 22.0004 30.0065 22.0004H25.4165C24.8885 22.0004 24.3745 22.2144 24.0025 22.5864L20.5945 25.9924C14.8525 25.7824 10.2185 21.1504 10.0085 15.4064L13.4165 12.0004C13.7885 11.6284 14.0025 11.1124 14.0025 10.5864V5.9964C14.0025 3.7924 12.2085 2.0004 10.0065 2.0004H4.93051C3.16651 2.0004 1.62651 3.1264 1.10051 4.8004C0.0205082 8.2344 -0.265492 11.8264 0.246508 15.4724C1.71651 25.9444 10.0565 34.2844 20.5285 35.7564Z" fill="#2C2A29"/>
</svg>
