<svg width="32" height="41" viewBox="0 0 32 41" fill="none" xmlns="http://www.w3.org/2000/svg">
<path fill-rule="evenodd" clip-rule="evenodd" d="M2 16C2 8.28 8.28 2 16 2C23.72 2 30 8.28 30 16C30 26.914 18.664 35.832 16 37.776C13.334 35.834 2 26.928 2 16ZM15.446 39.832L16 40.202L16.554 39.832C17.186 39.412 32 29.38 32 16C32 7.178 24.822 0 16 0C7.178 0 0 7.178 0 16C0 29.38 14.814 39.412 15.446 39.832ZM10 16C10 12.692 12.692 10 16 10C19.308 10 22 12.692 22 16C22 19.308 19.308 22 16 22C12.692 22 10 19.308 10 16ZM8 16C8 20.412 11.588 24 16 24C20.412 24 24 20.412 24 16C24 11.588 20.412 8 16 8C11.588 8 8 11.588 8 16Z" fill="#2C2A29"/>
</svg>
